<?xml version="1.0" encoding="UTF-8"?><svg id="MEDIUM" xmlns="http://www.w3.org/2000/svg" width="84" height="84" viewBox="0 0 84 84"><circle cx="42" cy="42" r="37.076" fill="#51c367" stroke="#021437" stroke-miterlimit="10" stroke-width="4"/><g id="BOLT"><path d="M55.972,18.446c.657-1.526.167-3.309-1.181-4.29-1.348-.98-3.187-.891-4.446.201l-28.523,24.957c-1.114.98-1.515,2.551-.992,3.933.524,1.382,1.861,2.317,3.343,2.317h12.423l-8.568,19.988c-.657,1.526-.167,3.309,1.181,4.29,1.348.98,3.187.891,4.446-.201l28.523-24.957c1.114-.98,1.515-2.551.992-3.933s-1.85-2.306-3.343-2.306h-12.423l8.568-19.999Z" fill="#021437" stroke-width="0"/></g></svg>