<?xml version="1.0" encoding="UTF-8"?><svg id="SMALL" xmlns="http://www.w3.org/2000/svg" width="48" height="48" viewBox="0 0 48 48"><circle cx="24" cy="24" r="21.124" fill="#e1334c" stroke="#021437" stroke-miterlimit="10" stroke-width="2"/><g id="CONFIRM_DENY"><path d="M35.617,15.869c.964-.964.964-2.53,0-3.494s-2.53-.964-3.494,0l-8.123,8.131-8.131-8.123c-.964-.964-2.53-.964-3.494,0s-.964,2.53,0,3.494l8.131,8.123-8.123,8.131c-.964.964-.964,2.53,0,3.494s2.53.964,3.494,0l8.123-8.131,8.131,8.123c.964.964,2.53.964,3.494,0s.964-2.53,0-3.494l-8.131-8.123,8.123-8.131Z" fill="#021437" stroke-width="0"/></g></svg>