<?xml version="1.0" encoding="UTF-8"?>
<svg id="_24PX" data-name="24PX" xmlns="http://www.w3.org/2000/svg" width="24" height="24" viewBox="0 0 24 24">
  <circle cx="12" cy="12" r="10.491" fill="#51c367" stroke="#021437" stroke-miterlimit="10"/>
  <g>
    <path d="M9.018,19.907v-4.198c-.139.14-.696.667-1.55.685-.911.019-1.511-.555-1.64-.685v1.034c0,.392,0,.784,0,1.176.155.154.357.344.603.548.453.377.861.642,1.156.817.373.221.848.464,1.417.671" fill="#021437" stroke="#021437" stroke-linecap="round" stroke-linejoin="round" stroke-width=".925"/>
    <path d="M6.496,14.165c-.026-.344-.042-.834.011-1.418.055-.617.092-1.033.3-1.496,0,0,.341-.763,1.157-1.329,1.117-.773,2.879-.732,4.541.08" fill="none" stroke="#021437" stroke-linecap="round" stroke-miterlimit="10" stroke-width="1.752"/>
    <path d="M8.403,13.708c-.015-.139-.126-1.333.611-1.832.123-.084.401-.236,1.157-.193,1.133.065,1.507.502,2.346.643.795.134,1.723-.051,2.346-.482,1.422-.984,1.656-3.529.729-5.298-.809-1.543-2.292-2.094-2.7-2.229-1.411-.465-3.665-.467-4.843,1.071-.76.992-.723,2.17-.686,2.614" fill="none" stroke="#021437" stroke-linecap="round" stroke-miterlimit="10" stroke-width="1.752"/>
    <path d="M15.774,6.497c.22-.048.555-.089.932.006.969.243,1.44,1.186,1.693,1.693.744,1.49.418,2.938.364,3.162-.038.16-.396,1.565-1.599,2.539-1.559,1.263-3.978,1.347-6.147.256" fill="none" stroke="#021437" stroke-linecap="round" stroke-miterlimit="10" stroke-width="1.752"/>
    <path d="M9.633,6.997c.248-.057.6-.116,1.024-.114.271.001.777.008,1.384.228.54.196.937.479,1.194.701" fill="none" stroke="#021437" stroke-linecap="round" stroke-miterlimit="10" stroke-width="1.752"/>
  </g>
</svg>