<?xml version="1.0" encoding="UTF-8"?>
<svg id="SMALL" xmlns="http://www.w3.org/2000/svg" width="48" height="48" viewBox="0 0 48 48">
  <circle cx="24" cy="24" r="21.124" fill="#59d671" stroke="#021437" stroke-miterlimit="10" stroke-width="2"/>
  <g id="GRAPHICS-2" data-name="GRAPHICS">
    <g>
      <path d="M18.066,39.71v-8.34c-.276.277-1.383,1.326-3.079,1.362-1.81.038-3.001-1.103-3.259-1.362v2.055c0,.779,0,1.557,0,2.336.308.306.71.684,1.198,1.09.9.748,1.712,1.276,2.298,1.623.742.439,1.685.922,2.816,1.334" fill="#021437" stroke="#021437" stroke-linecap="round" stroke-linejoin="round" stroke-width="1.838"/>
      <path d="M13.054,28.302c-.051-.684-.083-1.657.021-2.818.11-1.225.184-2.053.596-2.973,0,0,.678-1.517,2.299-2.64,2.219-1.537,5.721-1.454,9.023.159" fill="none" stroke="#021437" stroke-linecap="round" stroke-miterlimit="10" stroke-width="3.482"/>
      <path d="M16.844,27.394c-.029-.275-.249-2.648,1.213-3.64.245-.166.797-.469,2.299-.383,2.251.129,2.995.997,4.662,1.277,1.579.266,3.424-.102,4.662-.958,2.826-1.954,3.291-7.012,1.448-10.527-1.608-3.066-4.553-4.161-5.365-4.428-2.804-.924-7.282-.929-9.622,2.129-1.509,1.972-1.436,4.311-1.362,5.194" fill="none" stroke="#021437" stroke-linecap="round" stroke-miterlimit="10" stroke-width="3.482"/>
      <path d="M31.49,13.067c.437-.095,1.103-.176,1.851.011,1.924.482,2.861,2.357,3.363,3.363,1.478,2.96.831,5.837.724,6.283-.076.317-.787,3.109-3.176,5.045-3.098,2.509-7.903,2.676-12.214.508" fill="none" stroke="#021437" stroke-linecap="round" stroke-miterlimit="10" stroke-width="3.482"/>
      <path d="M19.287,14.06c.492-.113,1.191-.23,2.034-.226.538.002,1.544.015,2.75.452,1.074.389,1.862.952,2.373,1.394" fill="none" stroke="#021437" stroke-linecap="round" stroke-miterlimit="10" stroke-width="3.482"/>
    </g>
  </g>
</svg>