<?xml version="1.0" encoding="UTF-8"?>
<svg id="MEDIUM" xmlns="http://www.w3.org/2000/svg" width="72" height="72" viewBox="0 0 72 72">
  <circle cx="36" cy="36" r="31.9444" fill="#51c367" stroke="#021437" stroke-miterlimit="10" stroke-width="3.4464"/>
  <g id="TOGGLED">
    <path d="M48.0379,15.7064c.5664-1.3151.144-2.8511-1.0176-3.6959-1.1616-.8448-2.7455-.768-3.8302.1728l-24.575,21.5031c-.96.8448-1.3055,2.1983-.8544,3.3887.4512,1.1904,1.6031,1.9967,2.8799,1.9967h10.7036l-7.3821,17.2217c-.5664,1.3151-.144,2.8511,1.0176,3.6959,1.1616.8448,2.7455.768,3.8302-.1728l24.575-21.5031c.96-.8448,1.3055-2.1983.8544-3.3887s-1.5935-1.9871-2.8799-1.9871h-10.7036l7.3821-17.2313Z" fill="#f1f1f2" stroke-width="0"/>
  </g>
</svg>