<?xml version="1.0" encoding="UTF-8"?>
<svg id="MEDIUM" xmlns="http://www.w3.org/2000/svg" width="72" height="72" viewBox="0 0 72 72">
  <circle cx="36" cy="36" r="31.9444" fill="#51c367" stroke="#021437" stroke-miterlimit="10" stroke-width="3.4464"/>
  <g id="TOGGLED">
    <g id="NEW">
      <path d="M35.7365,11.6132c-6.5059,0-12.0322,3.912-13.934,9.3061-.7097,2.013.7789,4.1266,2.9133,4.1266h1.213c1.2746,0,2.3904-.7942,2.8732-1.9738.9853-2.4074,3.7209-4.1443,6.9345-4.1443,4.0403,0,7.3251,2.7459,7.3251,6.1181v1.0617c0,3.5841-1.5771,5.2574-3.971,7.7862-2.674,2.8263-6.1732,6.6757-6.1732,11.866,0,1.9741.0421,4.3612,2.4525,4.3612h1.1541c.7781,0,2.7991-.168,2.7991-2.2975,0-4.1371,2.8303-6.5248,5.0835-8.9069,2.6613-2.8114,5.9699-6.3119,5.9699-12.809v-1.0617c-.0001-7.4066-6.5652-13.4327-14.6401-13.4327Z" fill="#f1f1f2" stroke-width="0"/>
      <circle cx="36" cy="57.2986" r="4.1078" fill="#f1f1f2" stroke-width="0"/>
    </g>
  </g>
</svg>