<?xml version="1.0" encoding="UTF-8"?>
<svg id="_24PX" data-name="24PX" xmlns="http://www.w3.org/2000/svg" width="24" height="24" xmlns:xlink="http://www.w3.org/1999/xlink" viewBox="0 0 24 24">
  <defs>
    <clipPath id="clippath">
      <rect x="6.691" y="3.159" width="5.309" height="17.681" fill="none" stroke-width="0"/>
    </clipPath>
    <clipPath id="clippath-1">
      <rect x="12" y="3.159" width="5.309" height="17.681" fill="none" stroke-width="0"/>
    </clipPath>
  </defs>
  <circle cx="12" cy="12" r="10.491" fill="#51c367" stroke="#021437" stroke-miterlimit="10"/>
  <g id="HYDRO">
    <g>
      <g id="_Mirror_Repeat_" data-name="&amp;lt;Mirror Repeat&amp;gt;">
        <g clip-path="url(#clippath)">
          <path d="M12,3.607c-.248.767-.65,1.888-1.27,3.197-.085.179-.177.363-.971,1.874-1.368,2.603-1.304,2.451-1.414,2.687-.739,1.589-1.262,2.713-1.201,4.193.017.408.029,1.898,1.104,3.167,1.363,1.61,3.404,1.665,3.764,1.669" fill="#021437" stroke="#021437" stroke-linecap="round" stroke-linejoin="bevel" stroke-width=".895"/>
        </g>
      </g>
      <g id="_Mirror_Repeat_-2" data-name="&amp;lt;Mirror Repeat&amp;gt;">
        <g clip-path="url(#clippath-1)">
          <path d="M12,3.607c.248.767.65,1.888,1.27,3.197.085.179.177.363.971,1.874,1.368,2.603,1.304,2.451,1.414,2.687.739,1.589,1.262,2.713,1.201,4.193-.017.408-.029,1.898-1.104,3.167-1.363,1.61-3.404,1.665-3.764,1.669" fill="#021437" stroke="#021437" stroke-linecap="round" stroke-linejoin="bevel" stroke-width=".895"/>
        </g>
      </g>
    </g>
    <line x1="12" y1="3.447" x2="12" y2="20.546" fill="none" stroke="#021437" stroke-linecap="round" stroke-miterlimit="10" stroke-width=".577"/>
    <path d="M9.076,12.797c-.298.034-.712.86-.865,1.818-.107.669-.053,1.17.002,1.601.021.167.143,1.062.573,1.549,0,0,.002.002.003.004.142.148.233.242.337.265.077.017.198.003.264-.07.123-.138.021-.445-.103-.816-.001-.004-.002-.005-.003-.01-.236-.695-.306-1.645-.319-1.82,0,0-.066-.934.199-1.984.026-.102.042-.207.07-.308.025-.092.06-.144.035-.185-.038-.062-.166-.047-.194-.044Z" fill="#51c367" stroke="#021437" stroke-linecap="round" stroke-miterlimit="10" stroke-width=".113"/>
  </g>
</svg>