<?xml version="1.0" encoding="UTF-8"?><svg id="SMALL" xmlns="http://www.w3.org/2000/svg" width="48" height="48" xmlns:xlink="http://www.w3.org/1999/xlink" viewBox="0 0 48 48"><defs><style>.cls-1{stroke-width:4px;}.cls-1,.cls-2,.cls-3,.cls-4{stroke:#021437;}.cls-1,.cls-3,.cls-4{stroke-miterlimit:10;}.cls-1,.cls-4{fill:#51c367;}.cls-2{fill:#021437;stroke-linejoin:bevel;stroke-width:1.779px;}.cls-2,.cls-3,.cls-4{stroke-linecap:round;}.cls-5{stroke-width:0px;}.cls-5,.cls-3{fill:none;}.cls-3{stroke-width:1.146px;}.cls-4{stroke-width:.224px;}.cls-6{clip-path:url(#clippath-1);}.cls-7{clip-path:url(#clippath);}</style><clipPath id="clippath"><rect class="cls-5" x="13.451" y="6.435" width="10.549" height="35.13"/></clipPath><clipPath id="clippath-1"><rect class="cls-5" x="24" y="6.435" width="10.549" height="35.13"/></clipPath></defs><circle class="cls-1" cx="24" cy="24" r="21.124"/><g id="GRAPHICS-2"><g id="HYDRO"><g id="_Mirror_Repeat_"><g class="cls-7"><path class="cls-2" d="M24,7.324c-.493,1.524-1.291,3.752-2.524,6.351-.169.356-.352.722-1.93,3.723-2.718,5.172-2.591,4.869-2.809,5.338-1.469,3.157-2.508,5.39-2.387,8.331.033.811.057,3.771,2.193,6.292,2.709,3.198,6.763,3.309,7.478,3.316"/></g></g><g id="_Mirror_Repeat_-2"><g class="cls-6"><path class="cls-2" d="M24,7.324c.493,1.524,1.291,3.752,2.524,6.351.169.356.352.722,1.93,3.723,2.718,5.172,2.591,4.869,2.809,5.338,1.469,3.157,2.508,5.39,2.387,8.331-.033.811-.057,3.771-2.193,6.292-2.709,3.198-6.763,3.309-7.478,3.316"/></g></g><line class="cls-3" x1="24" y1="7.006" x2="24" y2="40.979"/><path class="cls-4" d="M18.19,25.584c-.592.067-1.414,1.709-1.719,3.613-.213,1.329-.105,2.325.004,3.18.042.332.283,2.109,1.138,3.078,0,0,.003.004.007.007.282.293.462.481.669.527.153.034.394.007.525-.14.245-.274.041-.885-.205-1.621-.003-.009-.003-.01-.007-.02-.468-1.38-.609-3.269-.633-3.615,0,0-.13-1.856.395-3.942.051-.203.084-.411.14-.613.05-.182.12-.285.07-.368-.075-.123-.33-.094-.385-.088Z"/></g></g></svg>