<?xml version="1.0" encoding="UTF-8"?>
<svg id="SMALL" xmlns="http://www.w3.org/2000/svg" width="48" height="48" viewBox="0 0 48 48">
  <circle cx="24" cy="24" r="21.124" fill="#59d671" stroke="#021437" stroke-miterlimit="10" stroke-width="2"/>
  <g id="GRAPHICS-2" data-name="GRAPHICS">
    <g id="NUCLEAR">
      <path d="M25.995,20.201c.358.188.938.554,1.438,1.21.775,1.018.868,2.096.882,2.515l.002.12h16.199c.056-1.724-.01-6.618-3.26-11.522-3.053-4.606-7.17-6.589-8.788-7.269l-6.425,14.73" fill="#021437" stroke="#021437" stroke-linecap="square" stroke-miterlimit="10" stroke-width=".839"/>
      <path d="M19.632,24c.02-.468.14-1.75,1.113-2.841.405-.454.84-.744,1.18-.926l-6.235-14.978c-1.659.7-5.72,2.674-8.789,7.198-3.326,4.902-3.473,9.827-3.442,11.593h16.174" fill="#021437" stroke="#021437" stroke-linecap="square" stroke-miterlimit="10" stroke-width=".839"/>
      <path d="M15.075,42.378l6.85-14.512c.355.185,1.105.515,2.107.505.947-.01,1.658-.321,2.01-.504l.023.049,6.894,14.605c-1.539.793-4.688,2.155-8.885,2.164-4.288.009-7.499-1.401-9.04-2.202l.041-.104Z" fill="#021437" stroke="#021437" stroke-linecap="square" stroke-miterlimit="10" stroke-width=".839"/>
      <circle cx="23.981" cy="24.05" r="1.915" fill="#021437" stroke="#021437" stroke-linecap="round" stroke-miterlimit="10" stroke-width="1.047"/>
    </g>
  </g>
</svg>