<?xml version="1.0" encoding="UTF-8"?>
<svg id="_24PX" data-name="24PX" xmlns="http://www.w3.org/2000/svg" width="24" height="24" viewBox="0 0 24 24">
  <circle cx="12" cy="12" r="10.491" fill="#51c367" stroke="#021437" stroke-miterlimit="10"/>
  <g id="NUCLEAR">
    <path d="M12.973,10.185c.174.091.456.269.698.587.376.494.422,1.018.428,1.221v.058h7.867c.027-.837-.005-3.214-1.583-5.595-1.482-2.237-3.482-3.2-4.268-3.53l-3.12,7.153" fill="#021437" stroke="#021437" stroke-linecap="square" stroke-miterlimit="10" stroke-width=".407"/>
    <path d="M9.883,12.03c.01-.227.068-.85.54-1.38.197-.22.408-.361.573-.45l-3.028-7.273c-.805.34-2.777,1.299-4.268,3.495-1.615,2.38-1.686,4.772-1.672,5.63h7.854" fill="#021437" stroke="#021437" stroke-linecap="square" stroke-miterlimit="10" stroke-width=".407"/>
    <path d="M7.671,20.955l3.326-7.047c.172.09.537.25,1.023.245.46-.005.805-.156.976-.245l.011.024,3.348,7.092c-.747.385-2.277,1.047-4.314,1.051-2.082.004-3.642-.68-4.39-1.069l.02-.051Z" fill="#021437" stroke="#021437" stroke-linecap="square" stroke-miterlimit="10" stroke-width=".407"/>
    <circle cx="11.995" cy="12.038" r=".964" fill="#021437" stroke="#021437" stroke-linecap="round" stroke-miterlimit="10" stroke-width=".527"/>
  </g>
</svg>