<?xml version="1.0" encoding="UTF-8"?><svg id="SMALL" xmlns="http://www.w3.org/2000/svg" width="48" height="48" viewBox="0 0 48 48"><defs><style>.cls-1{fill:#51c367;stroke-width:4px;}.cls-1,.cls-2,.cls-3{stroke:#021437;stroke-miterlimit:10;}.cls-2{stroke-linecap:square;stroke-width:.783px;}.cls-2,.cls-3{fill:#021437;}.cls-3{stroke-linecap:round;stroke-width:1.047px;}</style></defs><circle class="cls-1" cx="24" cy="24" r="21.124"/><g id="GRAPHICS-2"><g id="NUCLEAR"><path class="cls-2" d="M25.862,20.518c.334.175.876.517,1.342,1.129.723.951.81,1.956.823,2.348l.002.112h15.122c.052-1.609-.01-6.178-3.044-10.756-2.85-4.3-6.694-6.151-8.204-6.786l-5.998,13.751"/><path class="cls-2" d="M19.922,24.064c.019-.436.131-1.634,1.039-2.653.378-.424.784-.694,1.101-.864l-5.821-13.982c-1.548.653-5.339,2.496-8.205,6.719-3.105,4.576-3.242,9.174-3.214,10.822h15.099"/><path class="cls-2" d="M15.668,41.22l6.394-13.548c.331.173,1.032.481,1.967.471.884-.01,1.548-.3,1.877-.471l.021.046,6.435,13.635c-1.437.74-4.377,2.012-8.294,2.02-4.003.008-7.001-1.308-8.439-2.056l.038-.097Z"/><circle class="cls-3" cx="23.981" cy="24.05" r="1.915"/></g></g></svg>