<?xml version="1.0" encoding="UTF-8"?>
<svg id="MEDIUM" xmlns="http://www.w3.org/2000/svg" width="72" height="72" viewBox="0 0 72 72">
  <circle cx="36" cy="36" r="31.9444" fill="#51c367" stroke="#021437" stroke-miterlimit="10" stroke-width="3.4464"/>
  <g id="TOGGLED">
    <g id="PAN">
      <path d="M58.4949,31.7559c-.5082-.5082-1.1086-.8903-1.763-1.1327,1.3105-1.9106,1.1189-4.5489-.5772-6.2452-.5326-.5326-1.1583-.9165-1.8252-1.1527.4588-.7575.7044-1.6279.7044-2.5363,0-1.3111-.5106-2.5438-1.4378-3.4708-.927-.9271-2.1596-1.4377-3.4708-1.4377-.9084,0-1.7788.2455-2.5363.7044-.2921-.8245-.8099-1.5864-1.5555-2.1867-2.0008-1.611-4.9658-1.2114-6.7822.605l-8.2388,8.2388c-.2436-.621-.6137-1.1913-1.0995-1.6771-1.2806-1.2806-3.1442-1.7665-4.9922-1.2096-.786.2369-1.471.7312-2.0514,1.3116l-6.7291,6.729c-2.0459,2.0459-3.5341,4.6483-3.9393,7.5131-.5833,4.1234.7632,8.1105,3.6329,10.9803l7.8848,7.885c2.0457,2.0458,4.6481,3.5339,7.5127,3.9391,4.1233.5832,8.1107-.7631,10.9803-3.633l16.1799-16.1796c.5805-.5805,1.075-1.2653,1.3122-2.0512.558-1.8485.072-3.7127-1.209-4.9937ZM56.4125,36.6151l-16.0364,16.0364c-1.4885,1.4885-3.3505,2.617-5.4228,2.9868-3.3131.5912-6.5451-.4396-8.8457-2.7403l-8.0855-8.0855c-3.9304-3.9304-3.9303-10.3028,0-14.2331l7.032-7.0319c.3708-.3708.8638-.5751,1.3883-.5751s1.0174.2043,1.3883.5751c.3708.3708.5751.8638.5751,1.3883s-.2043,1.0174-.5751,1.3883l-4.5706,4.5706c-.5427.5427-.5427,1.4226,0,1.9653h0c.6074.6074,1.5922.6074,2.1996,0l16.1176-16.1177c.7655-.7655,2.0112-.7655,2.7767,0s.7655,2.0111,0,2.7767l-9.8704,9.8703c-.6074.6074-.6074,1.5922,0,2.1996h0c.5427.5427,1.4226.5427,1.9653,0l12.2882-12.2881c.3708-.3708.8639-.5751,1.3883-.5751s1.0175.2043,1.3884.5751c.3708.3708.5751.8639.5751,1.3883s-.2043,1.0174-.5751,1.3883l-2.2997,2.2997-9.8714,9.8714c-.6074.6074-.6074,1.5922,0,2.1996h0c.5427.5427,1.4226.5427,1.9654,0l9.9875-9.9875c.7655-.7655,2.0112-.7655,2.7767,0,.7655.7655.7655,2.0112,0,2.7767l-2.518,2.518-7.3523,7.3523c-.6074.6074-.6074,1.5922,0,2.1996h0c.5427.5427,1.4226.5427,1.9653,0l7.4691-7.4691c.3708-.3706.8637-.5747,1.3879-.5747.5245,0,1.0175.2043,1.3884.5751.3708.3708.5751.8639.5751,1.3883-.0001.5244-.2045,1.0175-.5753,1.3884Z" fill="#51c367" stroke-width="0"/>
      <path d="M56.4125,36.6151l-16.0364,16.0364c-1.4885,1.4885-3.3505,2.617-5.4228,2.9868-3.3131.5912-6.5451-.4396-8.8457-2.7403l-8.0855-8.0855c-3.9304-3.9304-3.9303-10.3028,0-14.2331l7.032-7.0319c.3708-.3708.8638-.5751,1.3883-.5751s1.0174.2043,1.3883.5751c.3708.3708.5751.8638.5751,1.3883s-.2043,1.0174-.5751,1.3883l-4.5706,4.5706c-.5427.5427-.5427,1.4226,0,1.9653h0c.6074.6074,1.5922.6074,2.1996,0l16.1176-16.1177c.7655-.7655,2.0112-.7655,2.7767,0s.7655,2.0111,0,2.7767l-9.8704,9.8703c-.6074.6074-.6074,1.5922,0,2.1996h0c.5427.5427,1.4226.5427,1.9653,0l12.2882-12.2881c.3708-.3708.8639-.5751,1.3883-.5751s1.0175.2043,1.3884.5751c.3708.3708.5751.8639.5751,1.3883s-.2043,1.0174-.5751,1.3883l-2.2997,2.2997-9.8714,9.8714c-.6074.6074-.6074,1.5922,0,2.1996h0c.5427.5427,1.4226.5427,1.9654,0l9.9875-9.9875c.7655-.7655,2.0112-.7655,2.7767,0,.7655.7655.7655,2.0112,0,2.7767l-2.518,2.518-7.3523,7.3523c-.6074.6074-.6074,1.5922,0,2.1996h0c.5427.5427,1.4226.5427,1.9653,0l7.4691-7.4691c.3708-.3706.8637-.5747,1.3879-.5747.5245,0,1.0175.2043,1.3884.5751.3708.3708.5751.8639.5751,1.3883-.0001.5244-.2045,1.0175-.5753,1.3884Z" fill="#f1f1f2" stroke="#f1f1f2" stroke-miterlimit="10" stroke-width=".8616"/>
    </g>
  </g>
</svg>