<?xml version="1.0" encoding="UTF-8"?><svg id="MEDIUM" xmlns="http://www.w3.org/2000/svg" width="84" height="84" viewBox="0 0 84 84"><circle cx="42" cy="42" r="37.076" fill="#51c367" stroke="#021437" stroke-miterlimit="10" stroke-width="4"/><g id="PAN"><g id="MAIN"><path d="M68.109,37.074c-.59-.59-1.287-1.033-2.046-1.315,1.521-2.217,1.299-5.28-.67-7.248-.618-.618-1.344-1.064-2.118-1.338.533-.879.818-1.889.818-2.944,0-1.522-.593-2.952-1.669-4.028-1.076-1.076-2.507-1.669-4.028-1.669-1.054,0-2.065.285-2.944.818-.339-.957-.94-1.841-1.805-2.538-2.322-1.87-5.764-1.406-7.872.702l-9.562,9.562c-.283-.721-.712-1.383-1.276-1.947-1.486-1.486-3.649-2.05-5.794-1.404-.912.275-1.707.849-2.381,1.522l-7.81,7.81c-2.375,2.375-4.102,5.395-4.572,8.72-.677,4.786.886,9.413,4.217,12.744l9.151,9.152c2.374,2.374,5.395,4.102,8.72,4.572,4.786.677,9.414-.886,12.744-4.217l18.779-18.779c.674-.674,1.248-1.469,1.523-2.381.648-2.145.084-4.309-1.403-5.796ZM65.692,42.714l-18.612,18.612c-1.728,1.728-3.889,3.037-6.294,3.467-3.845.686-7.597-.51-10.267-3.18l-9.384-9.384c-4.562-4.562-4.562-11.958,0-16.52l8.162-8.162c.43-.43,1.003-.667,1.611-.667s1.181.237,1.611.667c.43.43.667,1.003.667,1.611s-.237,1.181-.667,1.611l-5.305,5.305c-.63.63-.63,1.651,0,2.281h0c.705.705,1.848.705,2.553,0l18.707-18.707c.888-.888,2.334-.888,3.223,0s.888,2.334,0,3.223l-11.456,11.456c-.705.705-.705,1.848,0,2.553h0c.63.63,1.651.63,2.281,0l14.262-14.262c.43-.43,1.003-.667,1.611-.667s1.181.237,1.611.667c.43.43.667,1.003.667,1.611s-.237,1.181-.667,1.611l-2.669,2.669-11.457,11.457c-.705.705-.705,1.848,0,2.553h0c.63.63,1.651.63,2.281,0l11.592-11.592c.888-.888,2.334-.888,3.223,0,.888.888.888,2.334,0,3.223l-2.923,2.923-8.533,8.533c-.705.705-.705,1.848,0,2.553h0c.63.63,1.651.63,2.281,0l8.669-8.669c.43-.43,1.002-.667,1.611-.667s1.181.237,1.611.667c.43.43.667,1.003.667,1.611,0,.609-.237,1.181-.668,1.611Z" fill="#51c367" stroke-width="0"/><path d="M65.692,42.714l-18.612,18.612c-1.728,1.728-3.889,3.037-6.294,3.467-3.845.686-7.597-.51-10.267-3.18l-9.384-9.384c-4.562-4.562-4.562-11.958,0-16.52l8.162-8.162c.43-.43,1.003-.667,1.611-.667s1.181.237,1.611.667c.43.43.667,1.003.667,1.611s-.237,1.181-.667,1.611l-5.305,5.305c-.63.63-.63,1.651,0,2.281h0c.705.705,1.848.705,2.553,0l18.707-18.707c.888-.888,2.334-.888,3.223,0s.888,2.334,0,3.223l-11.456,11.456c-.705.705-.705,1.848,0,2.553h0c.63.63,1.651.63,2.281,0l14.262-14.262c.43-.43,1.003-.667,1.611-.667s1.181.237,1.611.667c.43.43.667,1.003.667,1.611s-.237,1.181-.667,1.611l-2.669,2.669-11.457,11.457c-.705.705-.705,1.848,0,2.553h0c.63.63,1.651.63,2.281,0l11.592-11.592c.888-.888,2.334-.888,3.223,0,.888.888.888,2.334,0,3.223l-2.923,2.923-8.533,8.533c-.705.705-.705,1.848,0,2.553h0c.63.63,1.651.63,2.281,0l8.669-8.669c.43-.43,1.002-.667,1.611-.667s1.181.237,1.611.667c.43.43.667,1.003.667,1.611,0,.609-.237,1.181-.668,1.611Z" fill="#021437" stroke="#021437" stroke-miterlimit="10"/></g></g></svg>