<?xml version="1.0" encoding="UTF-8"?>
<svg id="MEDIUM" xmlns="http://www.w3.org/2000/svg" width="72" height="72" viewBox="0 0 72 72">
  <circle cx="36" cy="36" r="31.9444" fill="#51c367" stroke="#021437" stroke-miterlimit="10" stroke-width="3.4464"/>
  <path id="REPAIR" d="M46.0533,40.1365c6.9111-.2252,12.6903-5.7673,13.2247-12.6613.1283-1.6552-.0478-3.2515-.463-4.7561-.2572-.9321-1.4297-1.2385-2.1134-.5548l-5.7328,5.7328c-.8079.8079-1.9036,1.2618-3.0462,1.2618h-.7734c-2.3792,0-4.308-1.9287-4.308-4.308v-.7734c0-1.1425.4539-2.2383,1.2618-3.0462l5.7328-5.7328c.6813-.6813.3818-1.8544-.5468-2.1112-1.4011-.3874-2.8817-.5676-4.4154-.4878-6.142.3199-12.1248,5.8513-12.9052,11.9519-.29,2.267-.006,4.4629.7029,6.4384l-15.4693,15.4692c-.937.937-1.6016,2.1385-1.7728,3.4525-.4992,3.8316,2.7278,7.0585,6.5594,6.5594,1.314-.1712,2.5155-.8358,3.4525-1.7728l15.4692-15.4693c1.5967.5823,3.3373.8666,5.1431.8077ZM22.2438,47.6965c1.1376,0,2.0597.9222,2.0597,2.0597s-.9222,2.0597-2.0597,2.0597-2.0597-.9222-2.0597-2.0597.9222-2.0597,2.0597-2.0597Z" fill="#021437" stroke-width="0"/>
  <g id="TOGGLED">
    <path id="REPAIR-2" data-name="REPAIR" d="M46.0533,40.1365c6.9111-.2252,12.6903-5.7673,13.2247-12.6613.1283-1.6552-.0478-3.2515-.463-4.7561-.2572-.9321-1.4297-1.2385-2.1134-.5548l-5.7328,5.7328c-.8079.8079-1.9036,1.2618-3.0462,1.2618h-.7734c-2.3792,0-4.308-1.9287-4.308-4.308v-.7734c0-1.1425.4539-2.2383,1.2618-3.0462l5.7328-5.7328c.6813-.6813.3818-1.8544-.5468-2.1112-1.4011-.3874-2.8817-.5676-4.4154-.4878-6.142.3199-12.1248,5.8513-12.9052,11.9519-.29,2.267-.006,4.4629.7029,6.4384l-15.4693,15.4692c-.937.937-1.6016,2.1385-1.7728,3.4525-.4992,3.8316,2.7278,7.0585,6.5594,6.5594,1.314-.1712,2.5155-.8358,3.4525-1.7728l15.4692-15.4693c1.5967.5823,3.3373.8666,5.1431.8077ZM22.2438,47.6965c1.1376,0,2.0597.9222,2.0597,2.0597s-.9222,2.0597-2.0597,2.0597-2.0597-.9222-2.0597-2.0597.9222-2.0597,2.0597-2.0597Z" fill="#f1f1f2" stroke-width="0"/>
  </g>
</svg>