<?xml version="1.0" encoding="UTF-8"?><svg id="MEDIUM" xmlns="http://www.w3.org/2000/svg" width="84" height="84" viewBox="0 0 84 84"><circle cx="42" cy="42" r="37.076" fill="#51c367" stroke="#021437" stroke-miterlimit="10" stroke-width="4"/><path id="REPAIR" d="M53.668,46.801c8.021-.261,14.729-6.694,15.349-14.695.149-1.921-.056-3.774-.537-5.52-.298-1.082-1.659-1.437-2.453-.644l-6.654,6.654c-.938.938-2.209,1.464-3.536,1.464h-.898c-2.761,0-5-2.239-5-5v-.898c0-1.326.527-2.598,1.464-3.536l6.654-6.654c.791-.791.443-2.152-.635-2.45-1.626-.45-3.345-.659-5.125-.566-7.129.371-14.073,6.791-14.978,13.872-.337,2.631-.007,5.18.816,7.473l-17.954,17.954c-1.088,1.088-1.859,2.482-2.058,4.007-.579,4.447,3.166,8.192,7.613,7.613,1.525-.199,2.92-.97,4.007-2.058l17.954-17.954c1.853.676,3.873,1.006,5.969.937ZM26.034,55.575c1.32,0,2.391,1.07,2.391,2.391s-1.07,2.391-2.391,2.391-2.391-1.07-2.391-2.391,1.07-2.391,2.391-2.391Z" fill="#021437" stroke-width="0"/></svg>