<?xml version="1.0" encoding="UTF-8"?><svg id="MEDIUM" xmlns="http://www.w3.org/2000/svg" width="84" height="84" viewBox="0 0 84 84"><circle cx="42" cy="42" r="37.076" fill="#51c367" stroke="#021437" stroke-miterlimit="10" stroke-width="4"/><path id="SERVICE_TRUCK" d="M17.804,25.086c0-2.155,1.748-3.903,3.903-3.903h26.022c2.155,0,3.903,1.748,3.903,3.903v3.903h4.123c1.382,0,2.708.545,3.684,1.521l6.286,6.286c.976.976,1.521,2.301,1.521,3.684v9.327c1.439,0,2.602,1.163,2.602,2.602s-1.163,2.602-2.602,2.602h-2.602c0,4.31-3.497,7.807-7.807,7.807s-7.807-3.497-7.807-7.807h-10.409c0,4.31-3.497,7.807-7.807,7.807s-7.807-3.497-7.807-7.807h-1.301c-2.155,0-3.903-1.748-3.903-3.903v-26.022ZM51.633,42h10.409v-1.521l-6.286-6.286h-4.123v7.807ZM30.815,58.914c2.156,0,3.903-1.748,3.903-3.903s-1.748-3.903-3.903-3.903-3.903,1.748-3.903,3.903,1.748,3.903,3.903,3.903ZM60.74,55.011c0-2.156-1.748-3.903-3.903-3.903s-3.903,1.748-3.903,3.903,1.748,3.903,3.903,3.903,3.903-1.748,3.903-3.903ZM38.937,26.888c.24-.557.061-1.207-.431-1.565s-1.163-.325-1.622.073l-10.406,9.106c-.407.358-.553.931-.362,1.435.191.504.679.846,1.22.846h4.532l-3.126,7.293c-.24.557-.061,1.207.431,1.565.492.358,1.163.325,1.622-.073l10.406-9.106c.407-.358.553-.931.362-1.435s-.675-.841-1.22-.841h-4.532l3.126-7.297Z" fill="#021437" stroke-width="0"/></svg>