<?xml version="1.0" encoding="UTF-8"?>
<svg id="_24PX" data-name="24PX" xmlns="http://www.w3.org/2000/svg" width="24" height="24" viewBox="0 0 24 24">
  <circle cx="12" cy="12" r="10.491" fill="#51c367" stroke="#021437" stroke-miterlimit="10"/>
  <g id="WIND">
    <path d="M15.105,11.723c.198,0,1.247-.019,2.096-.865.107-.107.916-.937.871-2.101-.049-1.278-1.107-2.47-2.629-2.841" fill="none" stroke="#021437" stroke-linecap="round" stroke-miterlimit="10" stroke-width="1.983"/>
    <line x1="4.655" y1="11.723" x2="15.105" y2="11.723" fill="none" stroke="#021437" stroke-linecap="round" stroke-miterlimit="10" stroke-width="1.983"/>
    <path d="M13.604,17.742c.126-.001.459.013.758.245.322.251.533.691.442,1.125-.11.521-.63.92-1.244.901" fill="none" stroke="#021437" stroke-linecap="round" stroke-miterlimit="10" stroke-width="1.983"/>
    <line x1="8.37" y1="17.742" x2="13.441" y2="17.742" fill="none" stroke="#021437" stroke-linecap="round" stroke-miterlimit="10" stroke-width="1.983"/>
    <line x1="5.662" y1="14.733" x2="18.698" y2="14.733" fill="none" stroke="#021437" stroke-linecap="round" stroke-miterlimit="10" stroke-width="1.983"/>
    <line x1="6.534" y1="8.524" x2="13.5" y2="8.524" fill="none" stroke="#021437" stroke-linecap="round" stroke-miterlimit="10" stroke-width="1.983"/>
  </g>
</svg>